<?xml version="1.0" encoding="UTF-8" standalone="no"?>
<svg
   xmlns:dc="http://purl.org/dc/elements/1.1/"
   xmlns:cc="http://creativecommons.org/ns#"
   xmlns:rdf="http://www.w3.org/1999/02/22-rdf-syntax-ns#"
   xmlns:svg="http://www.w3.org/2000/svg"
   xmlns="http://www.w3.org/2000/svg"
   xmlns:sodipodi="http://sodipodi.sourceforge.net/DTD/sodipodi-0.dtd"
   xmlns:inkscape="http://www.inkscape.org/namespaces/inkscape"
   height="24"
   width="24"
   version="1.1"
   id="svg6"
   sodipodi:docname="audio-volume-high-symbolic.svg"
   inkscape:version="0.92.3 (2405546, 2018-03-11)">
  <metadata
     id="metadata12">
    <rdf:RDF>
      <cc:Work
         rdf:about="">
        <dc:format>image/svg+xml</dc:format>
        <dc:type
           rdf:resource="http://purl.org/dc/dcmitype/StillImage" />
      </cc:Work>
    </rdf:RDF>
  </metadata>
  <defs
     id="defs10" />
  <sodipodi:namedview
     pagecolor="#ffffff"
     bordercolor="#666666"
     borderopacity="1"
     objecttolerance="10"
     gridtolerance="10"
     guidetolerance="10"
     inkscape:pageopacity="0"
     inkscape:pageshadow="2"
     inkscape:window-width="1317"
     inkscape:window-height="945"
     id="namedview8"
     showgrid="false"
     inkscape:zoom="22.627417"
     inkscape:cx="13.28249"
     inkscape:cy="12.448054"
     inkscape:window-x="1484"
     inkscape:window-y="271"
     inkscape:window-maximized="0"
     inkscape:current-layer="g4" />
  <g
     transform="translate(-593 295)"
     id="g4">
    <path
       color="#bebebe"
       d="M611.594-291.288l-1.406 1.031a12.251 12.251 0 0 1 2.406 7.282c0 2.712-.89 5.214-2.375 7.25l1.406 1.03a14.025 14.025 0 0 0 2.688-8.28c0-3.11-1.012-5.981-2.72-8.313zM602-289.5l-4 3.5h-2v6h2l4 3.5zm6.469.493l-1.375 1a8.422 8.422 0 0 1 0 10.032l1.406 1c1.227-1.69 1.969-3.753 1.969-6 0-2.263-.757-4.336-2-6.032zm-3 2.188l-1.344.969c.598.809.969 1.796.969 2.875a4.834 4.834 0 0 1-.938 2.843l1.344 1a6.527 6.527 0 0 0 1.25-3.843c0-1.438-.49-2.764-1.281-3.844z"
       fill="#666"
       overflow="visible"
       style="marker:none;fill:#555761;fill-opacity:1"
       id="path2" />
  </g>
</svg>
