<?xml version="1.0" encoding="UTF-8" standalone="no"?>
<svg
   xmlns:dc="http://purl.org/dc/elements/1.1/"
   xmlns:cc="http://creativecommons.org/ns#"
   xmlns:rdf="http://www.w3.org/1999/02/22-rdf-syntax-ns#"
   xmlns:svg="http://www.w3.org/2000/svg"
   xmlns="http://www.w3.org/2000/svg"
   xmlns:sodipodi="http://sodipodi.sourceforge.net/DTD/sodipodi-0.dtd"
   xmlns:inkscape="http://www.inkscape.org/namespaces/inkscape"
   id="svg6"
   version="1.1"
   width="24"
   height="24"
   sodipodi:docname="microphone-sensitivity-muted-10-symbolic.svg"
   inkscape:version="0.92.3 (2405546, 2018-03-11)">
  <sodipodi:namedview
     pagecolor="#ffffff"
     bordercolor="#666666"
     borderopacity="1"
     objecttolerance="10"
     gridtolerance="10"
     guidetolerance="10"
     inkscape:pageopacity="0"
     inkscape:pageshadow="2"
     inkscape:window-width="1537"
     inkscape:window-height="953"
     id="namedview6"
     showgrid="false"
     inkscape:zoom="27.812867"
     inkscape:cx="12.921618"
     inkscape:cy="11.019723"
     inkscape:window-x="1404"
     inkscape:window-y="377"
     inkscape:window-maximized="0"
     inkscape:current-layer="g820" />
  <metadata
     id="metadata12">
    <rdf:RDF>
      <cc:Work
         rdf:about="">
        <dc:format>image/svg+xml</dc:format>
        <dc:type
           rdf:resource="http://purl.org/dc/dcmitype/StillImage" />
        <dc:title />
      </cc:Work>
    </rdf:RDF>
  </metadata>
  <defs
     id="defs10" />
  <g
     id="g817">
    <g
       id="g820">
      <path
         id="path2"
         style="color:#bebebe;overflow:visible;isolation:auto;mix-blend-mode:normal;fill:#555761;marker:none;fill-opacity:1"
         d="m 12,5 c -1.108,0 -2,0.892 -2,2 v 6 c 0,1.108 0.892,2 2,2 1.108,0 2,-0.892 2,-2 V 7 C 14,5.892 13.108,5 12,5 Z m -5,5 v 1 h 1 v 2 a 3.981,3.981 0 0 0 3,3.861328 V 19 h -1 v 1 h 4 V 19 H 13 V 16.861328 A 3.981,3.981 0 0 0 16,13 v -2 h 1 v -1 h -2 v 3 c 0,1.662 -1.338,3 -3,3 -1.662,0 -3,-1.338 -3,-3 v -3 z" />
    </g>
  </g>
</svg>
